<?xml version="1.0" encoding="UTF-8"?>
<svg version="1.1" xmlns="http://www.w3.org/2000/svg" width="800" height="800">
<path d="M0 0 C1.76845984 0.00138269 1.76845984 0.00138269 3.57264614 0.00279331 C4.22686894 0.00193889 4.88109175 0.00108446 5.55513948 0.00020415 C7.7631863 -0.00145245 9.97115836 0.00407361 12.17919827 0.00952244 C13.75568038 0.0098043 15.33216263 0.0096466 16.90864468 0.00907993 C21.20184837 0.00879191 25.49502437 0.01468943 29.7882216 0.02165389 C34.26989971 0.02788661 38.75157838 0.02849116 43.23326015 0.0296793 C51.72598196 0.03279286 60.21869097 0.04100657 68.71140712 0.05102879 C78.37750826 0.06218917 88.04360999 0.06770019 97.70971596 0.07272422 C117.59920876 0.08318917 137.48869001 0.10078908 157.37817287 0.12304783 C157.85112795 1.53424293 158.32340625 2.94566485 158.7954092 4.35717869 C159.19002094 5.5361195 159.19002094 5.5361195 159.59260464 6.7388773 C160.31948831 8.94494233 161.01813113 11.15735854 161.70239162 13.37695408 C164.78670906 23.21669553 168.57521401 32.29817913 173.44946194 41.38330173 C174.27782043 42.93505846 175.0762308 44.5027173 175.87036037 46.07226658 C181.74137062 57.43283725 189.40471509 67.45113917 198.14770412 76.73632908 C199.97073508 78.68706798 201.65169082 80.66449437 203.31567287 82.74804783 C227.35423929 111.04063021 270.25396161 128.17297247 306.44018459 131.89599705 C338.84970183 134.40063815 370.195035 129.6143667 399.37817287 115.12304783 C400.03897854 114.8007822 400.6997842 114.47851658 401.38061428 114.14648533 C411.07011993 109.38282129 419.81138009 103.67982835 428.37817287 97.12304783 C429.32305569 96.40375095 430.2679385 95.68445408 431.24145412 94.94336033 C460.67409882 71.68688565 478.63151133 40.2555482 489.24926662 4.70898533 C490.37817287 1.12304783 490.37817287 1.12304783 491.37817287 0.12304783 C493.44111566 0.02622961 495.5074333 0.0011786 497.57264614 0.00279331 C498.22686894 0.00193889 498.88109175 0.00108446 499.55513948 0.00020415 C501.7631863 -0.00145245 503.97115836 0.00407361 506.17919827 0.00952244 C507.75568038 0.0098043 509.33216263 0.0096466 510.90864468 0.00907993 C515.20184837 0.00879191 519.49502437 0.01468943 523.7882216 0.02165389 C528.26989971 0.02788661 532.75157838 0.02849116 537.23326015 0.0296793 C545.72598196 0.03279286 554.21869097 0.04100657 562.71140712 0.05102879 C572.37750826 0.06218917 582.04360999 0.06770019 591.70971596 0.07272422 C611.59920876 0.08318917 631.48869001 0.10078908 651.37817287 0.12304783 C652.65646287 2.67962783 652.26728567 3.84758085 651.81176662 6.65429783 C651.65949612 7.59611912 651.50722561 8.53794041 651.35034084 9.50830173 C651.17390041 10.53616795 650.99745998 11.56403416 650.81567287 12.62304783 C650.63149807 13.69603123 650.44732327 14.76901463 650.25756741 15.87451267 C640.79681003 69.45955835 620.17130225 120.20284164 586.37817287 163.12304783 C585.68336819 164.01894627 584.9885635 164.9148447 584.27270412 165.83789158 C582.34096153 168.2953868 580.36895233 170.71315691 578.37817287 173.12304783 C577.56864162 174.11820408 576.75911037 175.11336033 575.92504787 176.13867283 C563.85194991 190.74822699 550.36982089 204.51279677 535.37817287 216.12304783 C533.50028168 217.723829 531.6254557 219.32821068 529.75317287 220.93554783 C518.42004103 230.387174 506.12441164 238.70359542 493.37817287 246.12304783 C492.73895901 246.49607029 492.09974514 246.86909275 491.44116116 247.25341892 C426.14308165 285.11298837 349.23797187 300.92223427 274.37817287 289.12304783 C273.31115139 288.95675877 272.24412991 288.7904697 271.14477444 288.61914158 C221.68247196 280.61505307 174.72450241 261.18958827 133.87817287 232.24804783 C133.14751614 231.73048923 132.4168594 231.21293064 131.66406155 230.67968845 C125.68422102 226.4075251 119.96662685 221.89734232 114.37817287 217.12304783 C113.17651858 216.10722332 111.97468429 215.09161172 110.77270412 214.07617283 C109.51559891 213.00916487 108.25908294 211.94146227 107.00317287 210.87304783 C106.41963039 210.3774033 105.83608791 209.88175877 105.23486233 209.3710947 C101.7958231 206.42263816 98.54814888 203.36437378 95.37817287 200.12304783 C94.48098537 199.22586033 93.58379787 198.32867283 92.65942287 197.40429783 C89.89900621 194.64388116 87.13858954 191.8834645 84.37817287 189.12304783 C83.56219631 188.32125095 82.74621975 187.51945408 81.90551662 186.69336033 C35.99994795 140.00732604 -0.36919607 67.06275014 -3.62182713 1.12304783 C-2.62182713 0.12304783 -2.62182713 0.12304783 0 0 Z " fill="#020202" transform="translate(75.62182712554932,437.8769521713257)"/>
<path d="M0 0 C0.9992601 -0.00701431 1.9985202 -0.01402863 3.02806091 -0.02125549 C6.23750366 -0.03866624 9.44676175 -0.04510847 12.65625 -0.046875 C14.30296188 -0.04788712 14.30296188 -0.04788712 15.98294067 -0.04891968 C32.57095823 -0.03271911 48.76256764 0.45160635 65.15625 3.203125 C66.21634277 3.37473145 67.27643555 3.54633789 68.36865234 3.72314453 C108.34913211 10.34415339 147.44165021 24.15112568 182.15625 45.203125 C182.87232422 45.62996582 183.58839844 46.05680664 184.32617188 46.49658203 C197.6521606 54.47336613 210.03017678 63.51031025 222.15625 73.203125 C223.13658203 73.98429687 223.13658203 73.98429687 224.13671875 74.78125 C233.32543896 82.19600904 241.66552334 90.51442096 250.03125 98.828125 C250.56609009 99.35751678 251.10093018 99.88690857 251.65197754 100.43234253 C258.62367451 107.35109363 265.07719679 114.47004817 271.15625 122.203125 C272.01386593 123.26339064 272.87184434 124.32336338 273.73046875 125.3828125 C297.09795789 155.18607961 314.66279165 188.52842026 327.15625 224.203125 C327.43807129 224.98478027 327.71989258 225.76643555 328.01025391 226.57177734 C335.15111612 246.49473881 341.15625 270.06497346 341.15625 291.203125 C288.02625 291.203125 234.89625 291.203125 180.15625 291.203125 C178.50625 285.593125 176.85625 279.983125 175.15625 274.203125 C173.96466984 270.96745205 172.78145614 267.84837328 171.40625 264.703125 C171.06899902 263.92106689 170.73174805 263.13900879 170.38427734 262.33325195 C162.90272839 245.29461649 153.86289646 229.9842591 141.1328125 216.33203125 C139.41694436 214.4839124 137.8034757 212.60068048 136.21875 210.640625 C134.39150736 208.15662064 134.39150736 208.15662064 132.15625 207.203125 C132.15625 206.543125 132.15625 205.883125 132.15625 205.203125 C131.58519531 204.955625 131.01414062 204.708125 130.42578125 204.453125 C127.80101031 203.00746803 125.99768774 201.28638084 123.84375 199.203125 C95.39007503 173.31358934 56.88166948 161.41971071 19.15625 159.203125 C18.16109375 159.14253906 17.1659375 159.08195313 16.140625 159.01953125 C-29.92393702 157.78824579 -72.64174238 177.36875639 -105.84375 208.203125 C-106.48699219 208.780625 -107.13023437 209.358125 -107.79296875 209.953125 C-128.60194818 229.49698828 -142.53073704 257.05876065 -150.20874023 284.19287109 C-150.96068421 286.57330426 -151.91662007 288.88530018 -152.84375 291.203125 C-205.97375 291.203125 -259.10375 291.203125 -313.84375 291.203125 C-309.19300826 259.81061823 -309.19300826 259.81061823 -306.59375 250.015625 C-306.14878174 248.29557251 -306.14878174 248.29557251 -305.69482422 246.54077148 C-291.76662501 193.90901715 -265.69286711 146.8694545 -229.09375 106.67578125 C-227.49893191 104.92314262 -225.9168313 103.15889315 -224.34375 101.38671875 C-220.10895833 96.64194455 -215.8771402 92.14316608 -211.00390625 88.0546875 C-208.38844029 85.81285953 -205.91090835 83.44306772 -203.40625 81.078125 C-150.16138072 31.8170445 -72.73598958 0.34404048 0 0 Z " fill="#020202" transform="translate(385.84375,70.796875)"/>
<path d="M0 0 C0.70843048 0.00087616 1.41686096 0.00175232 2.14675903 0.00265503 C13.05519143 0.04715285 23.00374668 0.7113602 33.375 4.375 C34.40222168 4.72908936 34.40222168 4.72908936 35.45019531 5.09033203 C62.68776825 14.67850172 85.80578132 34.33168254 98.59375 60.3984375 C111.75901502 88.88043401 112.85883052 119.54126087 102.16015625 148.95703125 C96.17032462 164.36186583 85.92053914 179.55384771 73.375 190.375 C72.50101563 191.12910156 71.62703125 191.88320313 70.7265625 192.66015625 C50.7007776 209.25889499 26.60456283 217.81131889 0.6875 217.6875 C-0.54838867 217.68186035 -1.78427734 217.6762207 -3.05761719 217.67041016 C-29.07364128 217.32548781 -56.97142702 207.47495741 -75.51953125 188.4296875 C-76.4554226 187.33505003 -77.37093353 186.22189875 -78.24609375 185.078125 C-79.70503251 183.20471404 -79.70503251 183.20471404 -81.98046875 181.10546875 C-94.75002503 167.92094905 -102.36170542 149.9570833 -106.625 132.375 C-106.81191406 131.62154297 -106.99882812 130.86808594 -107.19140625 130.09179688 C-111.03953827 113.0638127 -109.87693603 93.97415552 -104.625 77.375 C-104.30354004 76.34608643 -104.30354004 76.34608643 -103.97558594 75.29638672 C-99.24385527 60.6156241 -92.03251872 47.82809634 -81.625 36.375 C-81.15465332 35.85550781 -80.68430664 35.33601563 -80.19970703 34.80078125 C-59.11689722 11.81376169 -31.13494504 -0.09409074 0 0 Z " fill="#020202" transform="translate(399.625,291.625)"/>
<path d="M0 0 C0.66 0.33 1.32 0.66 2 1 C-6.58 9.58 -15.16 18.16 -24 27 C-24.66 26.67 -25.32 26.34 -26 26 C-25.57589844 25.5875 -25.15179688 25.175 -24.71484375 24.75 C-21.52050162 21.60480159 -18.46188754 18.42047562 -15.5625 15 C-12.55905358 11.50950821 -9.30811125 8.51909149 -5.80078125 5.54296875 C-3.7600079 3.79436686 -1.86078709 1.93831989 0 0 Z " fill="#5E5E5E" transform="translate(181,153)"/>
<path d="" fill="#F4F4F4" transform="translate(0,0)"/>
</svg>
